D:\school\WTK\thesis\model\3dpredictsim\Results\batch_windlass\Pog_s1_tmt_bCst_d05_k800_WL10_ig24_pas_GRF.mot
nRows=27
nColumns=19

name D:\school\WTK\thesis\model\3dpredictsim\Results\batch_windlass\Pog_s1_tmt_bCst_d05_k800_WL10_ig24_pas_GRF.mot
datacolumns 19
datarows 27
range 0.5390391130 0.8193394517
endheader
time 	ground_force_vx	ground_force_vy	ground_force_vz	ground_force_px	ground_force_py	ground_force_pz	1_ground_force_vx	1_ground_force_vy	1_ground_force_vz	1_ground_force_px	1_ground_force_py	1_ground_force_pz	ground_torque_x	ground_torque_y	ground_torque_z	1_ground_torque_x	1_ground_torque_y	1_ground_torque_z
        0.5390391130	       86.0968779417	      412.4185465739	        2.8606530390	        0.3365454505	        0.0000000000	        0.0318527471	      -92.6149777811	       76.5131210195	      -32.2654978909	        0.8068360383	        0.0000000000	       -0.0417044605	        0.0000000000	        0.0000000000	        0.0000000000	        0.0000000000	        0.0000000000	        0.0000000000	
        0.5498198952	       56.8870165086	      313.1523276503	       12.2500158384	        0.3431901682	        0.0000000000	        0.0290323371	     -145.2763712811	      163.0974484264	      -75.8042239774	        0.8174187405	        0.0000000000	       -0.0405588133	        0.0000000000	        0.0000000000	        0.0000000000	        0.0000000000	        0.0000000000	        0.0000000000	
        0.5606006775	       25.0545577435	      205.1743807308	       13.4412748704	        0.3556794405	        0.0000000000	        0.0225925278	      -69.6583473236	      379.0016519225	      -29.3027715130	        0.8311058052	        0.0000000000	       -0.0410630509	        0.0000000000	        0.0000000000	        0.0000000000	        0.0000000000	        0.0000000000	        0.0000000000	
        0.5713814597	        4.9738994356	      148.9032805820	       12.9673063391	        0.3652334435	        0.0000000000	        0.0167794527	      -70.0554117845	      630.5775291916	        4.8169694059	        0.8392971012	        0.0000000000	       -0.0420865410	        0.0000000000	        0.0000000000	        0.0000000000	        0.0000000000	        0.0000000000	        0.0000000000	
        0.5821622420	       -1.6334184046	      115.3561522407	       11.6755090046	        0.3653202971	        0.0000000000	        0.0167792318	      -98.7805749105	      828.5483303594	       14.5742751310	        0.8472649918	        0.0000000000	       -0.0422273252	        0.0000000000	        0.0000000000	        0.0000000000	        0.0000000000	        0.0000000000	        0.0000000000	
        0.5929430243	       -9.8028338969	       73.2276905042	        9.8569477532	        0.3652463858	        0.0000000000	        0.0167821671	     -124.3869440842	      949.2075728560	       16.5083671635	        0.8572872702	        0.0000000000	       -0.0414977992	        0.0000000000	        0.0000000000	        0.0000000000	        0.0000000000	        0.0000000000	        0.0000000000	
        0.6037238065	       -9.8528226367	       25.3137753213	        4.5192699482	        0.3650949903	        0.0000000000	        0.0166578559	     -129.7243960125	      956.7672348661	       13.0018224661	        0.8634264799	        0.0000000000	       -0.0407849050	        0.0000000000	        0.0000000000	        0.0000000000	        0.0000000000	        0.0000000000	        0.0000000000	
        0.6145045888	        0.1747644047	       -0.1762671648	       -0.0109217479	        0.0000000000	        0.0000000000	        0.0000000000	     -115.0559503078	      905.6498489326	       11.2763414590	        0.8667565472	        0.0000000000	       -0.0402367143	        0.0000000000	        0.0000000000	        0.0000000000	        0.0000000000	        0.0000000000	        0.0000000000	
        0.6252853710	        0.0003147266	       -0.0002599126	        0.0000068095	        0.0000000000	        0.0000000000	        0.0000000000	      -97.3864390832	      841.0569670117	       12.2626462458	        0.8697178427	        0.0000000000	       -0.0398109914	        0.0000000000	        0.0000000000	        0.0000000000	        0.0000000000	        0.0000000000	        0.0000000000	
        0.6360661533	        0.0000951627	       -0.0000677358	        0.0000044302	        0.0000000000	        0.0000000000	        0.0000000000	      -82.5617174811	      783.1486867313	       13.0419024324	        0.8726933577	        0.0000000000	       -0.0395193171	        0.0000000000	        0.0000000000	        0.0000000000	        0.0000000000	        0.0000000000	        0.0000000000	
        0.6468469356	        0.0005494879	       -0.0003497184	        0.0000328898	        0.0000000000	        0.0000000000	        0.0000000000	      -69.8481832475	      735.7819168718	       14.2655652474	        0.8757433671	        0.0000000000	       -0.0393263689	        0.0000000000	        0.0000000000	        0.0000000000	        0.0000000000	        0.0000000000	        0.0000000000	
        0.6576277178	        0.0086130513	       -0.0050295038	        0.0005973785	        0.0000000000	        0.0000000000	        0.0000000000	      -58.5839755858	      697.1038726975	       15.4462970935	        0.8789665291	        0.0000000000	       -0.0392162620	        0.0000000000	        0.0000000000	        0.0000000000	        0.0000000000	        0.0000000000	        0.0000000000	
        0.6684085001	       -0.0385283766	        0.0210196057	       -0.0029732640	        0.0000000000	        0.0000000000	        0.0000000000	      -48.5664890740	      665.9210031400	       17.1586949898	        0.8829267219	        0.0000000000	       -0.0391409546	        0.0000000000	        0.0000000000	        0.0000000000	        0.0000000000	        0.0000000000	        0.0000000000	
        0.6791892823	       -0.0290247773	        0.0149743905	       -0.0024583459	        0.0000000000	        0.0000000000	        0.0000000000	      -40.9302694463	      641.4215159975	       18.9678491282	        0.8878588182	        0.0000000000	       -0.0390597260	        0.0000000000	        0.0000000000	        0.0000000000	        0.0000000000	        0.0000000000	        0.0000000000	
        0.6899700646	       -0.0186068428	        0.0091530452	       -0.0017114596	        0.0000000000	        0.0000000000	        0.0000000000	      -35.4841061537	      622.9882005282	       20.2296274420	        0.8932991017	        0.0000000000	       -0.0389698591	        0.0000000000	        0.0000000000	        0.0000000000	        0.0000000000	        0.0000000000	        0.0000000000	
        0.7007508469	       -0.0143077892	        0.0067550699	       -0.0014096353	        0.0000000000	        0.0000000000	        0.0000000000	      -30.9953978823	      609.6113389797	       21.2662869858	        0.8991369924	        0.0000000000	       -0.0388585417	        0.0000000000	        0.0000000000	        0.0000000000	        0.0000000000	        0.0000000000	        0.0000000000	
        0.7115316291	       -0.0141470338	        0.0064437629	       -0.0014737879	        0.0000000000	        0.0000000000	        0.0000000000	      -27.6169014951	      599.8181617793	       21.5792856232	        0.9051287101	        0.0000000000	       -0.0387322404	        0.0000000000	        0.0000000000	        0.0000000000	        0.0000000000	        0.0000000000	        0.0000000000	
        0.7223124114	       -0.0178518229	        0.0078765276	       -0.0019329491	        0.0000000000	        0.0000000000	        0.0000000000	      -24.9279719811	      592.7212049029	       21.1485538842	        0.9109743857	        0.0000000000	       -0.0386062590	        0.0000000000	        0.0000000000	        0.0000000000	        0.0000000000	        0.0000000000	        0.0000000000	
        0.7330931936	       -0.0274624129	        0.0117782327	       -0.0030415666	        0.0000000000	        0.0000000000	        0.0000000000	      -22.3381790724	      587.8998360500	       20.4654664117	        0.9168243337	        0.0000000000	       -0.0384628199	        0.0000000000	        0.0000000000	        0.0000000000	        0.0000000000	        0.0000000000	        0.0000000000	
        0.7438739759	       -0.0482751162	        0.0201912019	       -0.0053947686	        0.0000000000	        0.0000000000	        0.0000000000	      -20.8688204539	      584.9215460445	       19.4400679063	        0.9225686074	        0.0000000000	       -0.0383028844	        0.0000000000	        0.0000000000	        0.0000000000	        0.0000000000	        0.0000000000	        0.0000000000	
        0.7546547581	       -0.0902815836	        0.0369414438	       -0.0100641424	        0.0000000000	        0.0000000000	        0.0000000000	      -19.5703752141	      582.4694159895	       18.2576652869	        0.9280133745	        0.0000000000	       -0.0381438646	        0.0000000000	        0.0000000000	        0.0000000000	        0.0000000000	        0.0000000000	        0.0000000000	
        0.7654355404	       -0.1684601903	        0.0676469784	       -0.0185753380	        0.0000000000	        0.0000000000	        0.0000000000	      -17.7956329216	      579.5707677558	       17.3767813056	        0.9332512318	        0.0000000000	       -0.0379785182	        0.0000000000	        0.0000000000	        0.0000000000	        0.0000000000	        0.0000000000	        0.0000000000	
        0.7762163227	       -0.2984447045	        0.1179745828	       -0.0324024644	        0.0000000000	        0.0000000000	        0.0000000000	      -15.6851755905	      575.5563772280	       16.7406579863	        0.9382772607	        0.0000000000	       -0.0378109900	        0.0000000000	        0.0000000000	        0.0000000000	        0.0000000000	        0.0000000000	        0.0000000000	
        0.7869971049	       -0.4833792152	        0.1886852253	       -0.0515475253	        0.0000000000	        0.0000000000	        0.0000000000	      -13.1956583438	      570.8824001433	       16.4026356055	        0.9432380185	        0.0000000000	       -0.0376284591	        0.0000000000	        0.0000000000	        0.0000000000	        0.0000000000	        0.0000000000	        0.0000000000	
        0.7977778872	       -0.7035737749	        0.2719781991	       -0.0733939138	        0.0000000000	        0.0000000000	        0.0000000000	      -10.4120332084	      565.5544548201	       15.9808210910	        0.9481397631	        0.0000000000	       -0.0374320255	        0.0000000000	        0.0000000000	        0.0000000000	        0.0000000000	        0.0000000000	        0.0000000000	
        0.8085586694	       -0.9205203677	        0.3532471488	       -0.0933100447	        0.0000000000	        0.0000000000	        0.0000000000	       -7.3127833878	      559.6832337794	       15.4884482145	        0.9530033220	        0.0000000000	       -0.0372162480	        0.0000000000	        0.0000000000	        0.0000000000	        0.0000000000	        0.0000000000	        0.0000000000	
        0.8193394517	       -1.0983818396	        0.4191845900	       -0.1069945813	        0.0000000000	        0.0000000000	        0.0000000000	       -3.5853303398	      553.2068176835	       14.4934376218	        0.9578124270	        0.0000000000	       -0.0369862000	        0.0000000000	        0.0000000000	        0.0000000000	        0.0000000000	        0.0000000000	        0.0000000000	
